<?xml version="1.0" encoding="UTF-8" standalone="no"?>
<svg width="20px" height="20px" viewBox="0 0 20 20" version="1.1" xmlns="http://www.w3.org/2000/svg" xmlns:xlink="http://www.w3.org/1999/xlink" xmlns:sketch="http://www.bohemiancoding.com/sketch/ns">
    <!-- Generator: Sketch 3.4.2 (15855) - http://www.bohemiancoding.com/sketch -->
    <title>socialmedia11 copy 2</title>
    <desc>Created with Sketch.</desc>
    <defs></defs>
    <g id="Page-2" stroke="none" stroke-width="1" fill="none" fill-rule="evenodd" sketch:type="MSPage">
        <g id="Main" sketch:type="MSArtboardGroup" transform="translate(-1193.000000, -179.000000)" fill="#000000">
            <g id="socialmedia11-copy-2" sketch:type="MSLayerGroup" transform="translate(1193.000000, 179.000000)">
                <path d="M17.4157143,0 L2.51301587,0 C1.1252381,0 0,1.1252381 0,2.51269841 L0,17.4152381 C0,18.8030159 1.1252381,19.928254 2.51301587,19.928254 L17.415873,19.928254 C18.8030159,19.928254 19.928254,18.8030159 19.928254,17.4152381 L19.928254,2.51269841 C19.9285714,1.1252381 18.8031746,0 17.4157143,0 L17.4157143,0 Z M9.96428571,7.04444444 C11.5744444,7.04444444 12.884127,8.35444444 12.884127,9.96428571 C12.884127,11.5744444 11.5744444,12.884127 9.96428571,12.884127 C8.35444444,12.884127 7.04444444,11.5744444 7.04444444,9.96428571 C7.04444444,8.35444444 8.35444444,7.04444444 9.96428571,7.04444444 L9.96428571,7.04444444 Z M17.6112698,16.3534921 C17.6112698,17.0471429 16.965873,17.6114286 16.271746,17.6114286 L3.70587302,17.6114286 C3.01142857,17.6114286 2.31730159,17.0471429 2.31730159,16.3534921 L2.31730159,10.0704762 C2.31730159,9.37666667 3.01142857,8.80571429 3.70587302,8.80571429 L4.40619048,8.80571429 C4.5384127,8.80571429 4.66396825,8.86269841 4.75142857,8.96174603 C4.83857143,9.06111111 4.87952381,9.19349206 4.86222222,9.32444444 C4.83492063,9.53396825 4.82,9.74761905 4.82,9.96444444 C4.82,12.8009524 7.12777778,15.1087302 9.96444444,15.1087302 C12.8009524,15.1087302 15.1087302,12.8009524 15.1087302,9.96444444 C15.1087302,9.74761905 15.0938095,9.53396825 15.0666667,9.32444444 C15.0493651,9.1931746 15.0898413,9.06126984 15.1766667,8.96142857 C15.2644444,8.86206349 15.39,8.80539683 15.5228571,8.80539683 L16.2725397,8.80539683 C16.9661905,8.80539683 17.6119048,9.37650794 17.6119048,10.0706349 L17.6119048,16.3536508 L17.6112698,16.3536508 L17.6112698,16.3534921 Z M17.611746,4.76793651 L17.611746,4.76793651 C17.6112698,5.46206349 17.0487302,6.02492063 16.3549206,6.02492063 L15.1609524,6.02492063 C14.4663492,6.02492063 13.9033333,5.46206349 13.9033333,4.76793651 L13.9033333,3.57380952 C13.9033333,2.88015873 14.4663492,2.31730159 15.1609524,2.31730159 L16.3549206,2.31730159 C17.0487302,2.31730159 17.611746,2.88015873 17.611746,3.57380952 L17.611746,4.76793651 L17.611746,4.76793651 Z" id="Shape" sketch:type="MSShapeGroup"></path>
            </g>
        </g>
    </g>
</svg>